<mxfile host="65bd71144e">
    <diagram id="bo9QWOBeJpBjfLg1H8rP" name="Страница 1">
        <mxGraphModel dx="714" dy="429" grid="1" gridSize="10" guides="1" tooltips="1" connect="1" arrows="1" fold="1" page="1" pageScale="1" pageWidth="827" pageHeight="1169" math="0" shadow="0">
            <root>
                <mxCell id="0"/>
                <mxCell id="1" parent="0"/>
                <mxCell id="2" value="&lt;font style=&quot;font-size: 16px&quot;&gt;Start&lt;/font&gt;" style="ellipse;whiteSpace=wrap;html=1;" parent="1" vertex="1">
                    <mxGeometry x="410" y="20" width="120" height="80" as="geometry"/>
                </mxCell>
                <mxCell id="3" value="Enter&lt;br&gt;size&lt;br&gt;array [size]&lt;br&gt;&amp;nbsp;" style="shape=parallelogram;perimeter=parallelogramPerimeter;whiteSpace=wrap;html=1;fixedSize=1;fontSize=16;" parent="1" vertex="1">
                    <mxGeometry x="375" y="120" width="190" height="100" as="geometry"/>
                </mxCell>
                <mxCell id="5" value="&lt;font style=&quot;font-size: 16px&quot; color=&quot;#ffffff&quot;&gt;&lt;span lang=&quot;EN-US&quot; style=&quot;line-height: 115%&quot;&gt;sizeresult&lt;/span&gt;&lt;span lang=&quot;EN-US&quot; style=&quot;line-height: 115%&quot;&gt; = &lt;/span&gt;&lt;span lang=&quot;EN-US&quot; style=&quot;line-height: 115%&quot;&gt;0&lt;/span&gt;&lt;/font&gt;&lt;span&gt;&lt;br&gt;&lt;/span&gt;" style="rounded=0;whiteSpace=wrap;html=1;fontSize=16;" parent="1" vertex="1">
                    <mxGeometry x="408.5" y="260" width="120" height="60" as="geometry"/>
                </mxCell>
                <mxCell id="18" value="&lt;font color=&quot;#ffffff&quot;&gt;&lt;span style=&quot;font-size: 10.5pt ; line-height: 115%&quot;&gt;array&lt;/span&gt;&lt;span style=&quot;font-size: 10.5pt ; line-height: 115%&quot;&gt;[&lt;/span&gt;&lt;span style=&quot;font-size: 10.5pt ; line-height: 115%&quot;&gt;i&lt;/span&gt;&lt;span style=&quot;font-size: 10.5pt ; line-height: 115%&quot;&gt;].&lt;/span&gt;&lt;span style=&quot;font-size: 10.5pt ; line-height: 115%&quot;&gt;Length&lt;/span&gt;&lt;span style=&quot;font-size: 10.5pt ; line-height: 115%&quot;&gt; &amp;lt;= &lt;/span&gt;&lt;span style=&quot;font-size: 10.5pt ; line-height: 115%&quot;&gt;3&lt;/span&gt;&lt;/font&gt;" style="rhombus;whiteSpace=wrap;html=1;fontSize=16;" parent="1" vertex="1">
                    <mxGeometry x="358.5" y="460" width="220" height="160" as="geometry"/>
                </mxCell>
                <mxCell id="19" value="for i=1, size, 1" style="shape=hexagon;perimeter=hexagonPerimeter2;whiteSpace=wrap;html=1;fixedSize=1;fontSize=16;" parent="1" vertex="1">
                    <mxGeometry x="408.5" y="350" width="120" height="80" as="geometry"/>
                </mxCell>
                <mxCell id="20" value="" style="endArrow=classic;html=1;fontFamily=Helvetica;fontSize=16;fontColor=#FFFFFF;exitX=0.5;exitY=1;exitDx=0;exitDy=0;entryX=0.5;entryY=0;entryDx=0;entryDy=0;" parent="1" source="5" target="19" edge="1">
                    <mxGeometry width="50" height="50" relative="1" as="geometry">
                        <mxPoint x="300" y="350" as="sourcePoint"/>
                        <mxPoint x="350" y="300" as="targetPoint"/>
                    </mxGeometry>
                </mxCell>
                <mxCell id="21" value="" style="endArrow=classic;html=1;fontFamily=Helvetica;fontSize=16;fontColor=#FFFFFF;exitX=0.5;exitY=1;exitDx=0;exitDy=0;entryX=0.5;entryY=0;entryDx=0;entryDy=0;" parent="1" source="19" target="18" edge="1">
                    <mxGeometry width="50" height="50" relative="1" as="geometry">
                        <mxPoint x="300" y="550" as="sourcePoint"/>
                        <mxPoint x="350" y="500" as="targetPoint"/>
                    </mxGeometry>
                </mxCell>
                <mxCell id="22" value="&lt;span lang=&quot;EN-US&quot; style=&quot;font-size: 9.5pt ; line-height: 115%&quot;&gt;sizeresult&lt;/span&gt;&lt;span lang=&quot;EN-US&quot; style=&quot;font-size: 9.5pt ; line-height: 115%&quot;&gt;&amp;nbsp;+=&lt;/span&gt;" style="rounded=0;whiteSpace=wrap;html=1;fontFamily=Helvetica;fontSize=16;fontColor=#FFFFFF;" parent="1" vertex="1">
                    <mxGeometry x="348.5" y="670" width="240" height="60" as="geometry"/>
                </mxCell>
                <mxCell id="23" value="" style="endArrow=classic;fontFamily=Helvetica;fontSize=16;fontColor=#FFFFFF;exitX=0.5;exitY=1;exitDx=0;exitDy=0;entryX=0.5;entryY=0;entryDx=0;entryDy=0;html=1;" parent="1" source="18" target="22" edge="1">
                    <mxGeometry width="50" height="50" relative="1" as="geometry">
                        <mxPoint x="300" y="570" as="sourcePoint"/>
                        <mxPoint x="350" y="520" as="targetPoint"/>
                    </mxGeometry>
                </mxCell>
                <mxCell id="24" value="" style="endArrow=classic;html=1;fontFamily=Helvetica;fontSize=16;fontColor=#FFFFFF;exitX=-0.002;exitY=0.617;exitDx=0;exitDy=0;exitPerimeter=0;" parent="1" source="22" edge="1">
                    <mxGeometry width="50" height="50" relative="1" as="geometry">
                        <mxPoint x="300" y="570" as="sourcePoint"/>
                        <mxPoint x="310" y="707" as="targetPoint"/>
                    </mxGeometry>
                </mxCell>
                <mxCell id="25" value="" style="endArrow=classic;html=1;fontFamily=Helvetica;fontSize=16;fontColor=#FFFFFF;" parent="1" edge="1">
                    <mxGeometry width="50" height="50" relative="1" as="geometry">
                        <mxPoint x="310" y="710" as="sourcePoint"/>
                        <mxPoint x="310" y="390" as="targetPoint"/>
                    </mxGeometry>
                </mxCell>
                <mxCell id="26" value="" style="endArrow=classic;html=1;fontFamily=Helvetica;fontSize=16;fontColor=#FFFFFF;" parent="1" target="19" edge="1">
                    <mxGeometry width="50" height="50" relative="1" as="geometry">
                        <mxPoint x="310" y="390" as="sourcePoint"/>
                        <mxPoint x="350" y="520" as="targetPoint"/>
                    </mxGeometry>
                </mxCell>
                <mxCell id="27" value="" style="endArrow=classic;html=1;fontFamily=Helvetica;fontSize=16;fontColor=#FFFFFF;exitX=1;exitY=0.5;exitDx=0;exitDy=0;" parent="1" source="19" edge="1">
                    <mxGeometry width="50" height="50" relative="1" as="geometry">
                        <mxPoint x="300" y="570" as="sourcePoint"/>
                        <mxPoint x="650" y="390" as="targetPoint"/>
                    </mxGeometry>
                </mxCell>
                <mxCell id="28" value="" style="endArrow=classic;html=1;fontFamily=Helvetica;fontSize=16;fontColor=#FFFFFF;" parent="1" edge="1">
                    <mxGeometry width="50" height="50" relative="1" as="geometry">
                        <mxPoint x="650" y="390" as="sourcePoint"/>
                        <mxPoint x="650" y="771" as="targetPoint"/>
                    </mxGeometry>
                </mxCell>
                <mxCell id="29" value="" style="endArrow=classic;html=1;fontFamily=Helvetica;fontSize=16;fontColor=#FFFFFF;" parent="1" edge="1">
                    <mxGeometry width="50" height="50" relative="1" as="geometry">
                        <mxPoint x="650" y="770" as="sourcePoint"/>
                        <mxPoint x="470" y="770" as="targetPoint"/>
                    </mxGeometry>
                </mxCell>
                <mxCell id="30" value="&lt;p&gt;&lt;span style=&quot;font-size: 9.5pt ; line-height: 115%&quot;&gt;sizeresult&lt;/span&gt;&lt;span style=&quot;font-size: 9.5pt ; line-height: 115%&quot;&gt; =&lt;/span&gt;&lt;span style=&quot;font-size: 9.5pt ; line-height: 115%&quot;&gt;0 ?&lt;/span&gt;&lt;/p&gt;" style="rhombus;whiteSpace=wrap;html=1;fontFamily=Helvetica;fontSize=16;fontColor=#FFFFFF;" parent="1" vertex="1">
                    <mxGeometry x="389" y="800" width="159" height="110" as="geometry"/>
                </mxCell>
                <mxCell id="31" value="" style="endArrow=classic;html=1;fontFamily=Helvetica;fontSize=16;fontColor=#FFFFFF;entryX=0.5;entryY=0;entryDx=0;entryDy=0;" parent="1" target="30" edge="1">
                    <mxGeometry width="50" height="50" relative="1" as="geometry">
                        <mxPoint x="470" y="770" as="sourcePoint"/>
                        <mxPoint x="390" y="840" as="targetPoint"/>
                    </mxGeometry>
                </mxCell>
                <mxCell id="32" value="" style="endArrow=classic;html=1;fontFamily=Helvetica;fontSize=16;fontColor=#FFFFFF;exitX=0.5;exitY=1;exitDx=0;exitDy=0;" parent="1" source="30" target="33" edge="1">
                    <mxGeometry width="50" height="50" relative="1" as="geometry">
                        <mxPoint x="340" y="890" as="sourcePoint"/>
                        <mxPoint x="469" y="980" as="targetPoint"/>
                    </mxGeometry>
                </mxCell>
                <mxCell id="33" value="Print&lt;br&gt;(Нет элементов длина которых меньше или равна 3)" style="shape=document;whiteSpace=wrap;html=1;boundedLbl=1;fontFamily=Helvetica;fontSize=16;fontColor=#FFFFFF;" parent="1" vertex="1">
                    <mxGeometry x="347" y="930" width="241.5" height="100" as="geometry"/>
                </mxCell>
                <mxCell id="37" value="" style="endArrow=classic;html=1;fontFamily=Helvetica;fontSize=16;fontColor=#FFFFFF;exitX=1;exitY=0.5;exitDx=0;exitDy=0;" parent="1" source="30" edge="1">
                    <mxGeometry width="50" height="50" relative="1" as="geometry">
                        <mxPoint x="340" y="1010" as="sourcePoint"/>
                        <mxPoint x="720" y="855" as="targetPoint"/>
                    </mxGeometry>
                </mxCell>
                <mxCell id="38" value="" style="endArrow=classic;html=1;fontFamily=Helvetica;fontSize=16;fontColor=#FFFFFF;exitX=0.5;exitY=1;exitDx=0;exitDy=0;entryX=0.5;entryY=0;entryDx=0;entryDy=0;" parent="1" source="2" target="3" edge="1">
                    <mxGeometry width="50" height="50" relative="1" as="geometry">
                        <mxPoint x="720" y="220" as="sourcePoint"/>
                        <mxPoint x="770" y="170" as="targetPoint"/>
                    </mxGeometry>
                </mxCell>
                <mxCell id="39" value="" style="endArrow=classic;html=1;fontFamily=Helvetica;fontSize=16;fontColor=#FFFFFF;exitX=0.5;exitY=1;exitDx=0;exitDy=0;entryX=0.5;entryY=0;entryDx=0;entryDy=0;" parent="1" source="3" edge="1">
                    <mxGeometry width="50" height="50" relative="1" as="geometry">
                        <mxPoint x="720" y="220" as="sourcePoint"/>
                        <mxPoint x="470" y="260" as="targetPoint"/>
                    </mxGeometry>
                </mxCell>
                <mxCell id="40" value="Enter&lt;br&gt;&lt;br&gt;arrayresult [sizeresult]&lt;br&gt;&amp;nbsp;" style="shape=parallelogram;perimeter=parallelogramPerimeter;whiteSpace=wrap;html=1;fixedSize=1;fontSize=16;" parent="1" vertex="1">
                    <mxGeometry x="620" y="930" width="190" height="90" as="geometry"/>
                </mxCell>
                <mxCell id="41" value="" style="endArrow=classic;html=1;fontFamily=Helvetica;fontSize=16;fontColor=#FFFFFF;" parent="1" edge="1">
                    <mxGeometry width="50" height="50" relative="1" as="geometry">
                        <mxPoint x="550" y="1450" as="sourcePoint"/>
                        <mxPoint x="550" y="1200" as="targetPoint"/>
                    </mxGeometry>
                </mxCell>
                <mxCell id="42" value="" style="endArrow=classic;html=1;fontFamily=Helvetica;fontSize=16;fontColor=#FFFFFF;exitX=0.5;exitY=1;exitDx=0;exitDy=0;entryX=0.5;entryY=0;entryDx=0;entryDy=0;" parent="1" source="48" target="49" edge="1">
                    <mxGeometry width="50" height="50" relative="1" as="geometry">
                        <mxPoint x="520" y="1120" as="sourcePoint"/>
                        <mxPoint x="570" y="1070" as="targetPoint"/>
                    </mxGeometry>
                </mxCell>
                <mxCell id="43" value="" style="endArrow=classic;html=1;fontFamily=Helvetica;fontSize=16;fontColor=#FFFFFF;entryX=0.5;entryY=0;entryDx=0;entryDy=0;" parent="1" target="40" edge="1">
                    <mxGeometry width="50" height="50" relative="1" as="geometry">
                        <mxPoint x="715" y="860" as="sourcePoint"/>
                        <mxPoint x="730" y="930" as="targetPoint"/>
                    </mxGeometry>
                </mxCell>
                <mxCell id="44" value="j = 0" style="whiteSpace=wrap;html=1;aspect=fixed;fontFamily=Helvetica;fontSize=16;fontColor=#FFFFFF;" parent="1" vertex="1">
                    <mxGeometry x="675" y="1050" width="80" height="80" as="geometry"/>
                </mxCell>
                <mxCell id="45" value="" style="endArrow=classic;html=1;fontFamily=Helvetica;fontSize=16;fontColor=#FFFFFF;entryX=0.5;entryY=0;entryDx=0;entryDy=0;" parent="1" source="40" target="44" edge="1">
                    <mxGeometry width="50" height="50" relative="1" as="geometry">
                        <mxPoint x="680" y="1170" as="sourcePoint"/>
                        <mxPoint x="730" y="1120" as="targetPoint"/>
                    </mxGeometry>
                </mxCell>
                <mxCell id="48" value="for i=1, size, 1" style="shape=hexagon;perimeter=hexagonPerimeter2;whiteSpace=wrap;html=1;fixedSize=1;fontSize=16;" parent="1" vertex="1">
                    <mxGeometry x="655" y="1160" width="120" height="80" as="geometry"/>
                </mxCell>
                <mxCell id="49" value="&lt;font color=&quot;#ffffff&quot;&gt;&lt;span style=&quot;font-size: 10.5pt ; line-height: 115%&quot;&gt;array&lt;/span&gt;&lt;span style=&quot;font-size: 10.5pt ; line-height: 115%&quot;&gt;[&lt;/span&gt;&lt;span style=&quot;font-size: 10.5pt ; line-height: 115%&quot;&gt;i&lt;/span&gt;&lt;span style=&quot;font-size: 10.5pt ; line-height: 115%&quot;&gt;].&lt;/span&gt;&lt;span style=&quot;font-size: 10.5pt ; line-height: 115%&quot;&gt;Length&lt;/span&gt;&lt;span style=&quot;font-size: 10.5pt ; line-height: 115%&quot;&gt; &amp;lt;= &lt;/span&gt;&lt;span style=&quot;font-size: 10.5pt ; line-height: 115%&quot;&gt;3&lt;/span&gt;&lt;/font&gt;" style="rhombus;whiteSpace=wrap;html=1;fontSize=16;" parent="1" vertex="1">
                    <mxGeometry x="627.5" y="1260" width="175" height="140" as="geometry"/>
                </mxCell>
                <mxCell id="50" value="" style="endArrow=classic;html=1;fontFamily=Helvetica;fontSize=16;fontColor=#FFFFFF;exitX=0.5;exitY=1;exitDx=0;exitDy=0;" parent="1" source="44" edge="1">
                    <mxGeometry width="50" height="50" relative="1" as="geometry">
                        <mxPoint x="680" y="1320" as="sourcePoint"/>
                        <mxPoint x="715" y="1160" as="targetPoint"/>
                    </mxGeometry>
                </mxCell>
                <mxCell id="51" value="arrayresult = array&lt;br&gt;j++" style="rounded=0;whiteSpace=wrap;html=1;fontFamily=Helvetica;fontSize=16;fontColor=#FFFFFF;" parent="1" vertex="1">
                    <mxGeometry x="625" y="1430" width="180" height="50" as="geometry"/>
                </mxCell>
                <mxCell id="52" value="" style="endArrow=classic;html=1;fontFamily=Helvetica;fontSize=16;fontColor=#FFFFFF;exitX=0.5;exitY=1;exitDx=0;exitDy=0;entryX=0.5;entryY=0;entryDx=0;entryDy=0;" parent="1" source="49" target="51" edge="1">
                    <mxGeometry width="50" height="50" relative="1" as="geometry">
                        <mxPoint x="680" y="1410" as="sourcePoint"/>
                        <mxPoint x="730" y="1360" as="targetPoint"/>
                    </mxGeometry>
                </mxCell>
                <mxCell id="56" value="" style="endArrow=classic;html=1;fontFamily=Helvetica;fontSize=16;fontColor=#FFFFFF;exitX=0;exitY=0.5;exitDx=0;exitDy=0;" parent="1" source="51" edge="1">
                    <mxGeometry width="50" height="50" relative="1" as="geometry">
                        <mxPoint x="680" y="1310" as="sourcePoint"/>
                        <mxPoint x="550" y="1455" as="targetPoint"/>
                    </mxGeometry>
                </mxCell>
                <mxCell id="57" value="" style="endArrow=classic;html=1;fontFamily=Helvetica;fontSize=16;fontColor=#FFFFFF;entryX=0;entryY=0.5;entryDx=0;entryDy=0;" parent="1" target="48" edge="1">
                    <mxGeometry width="50" height="50" relative="1" as="geometry">
                        <mxPoint x="550" y="1200" as="sourcePoint"/>
                        <mxPoint x="730" y="1260" as="targetPoint"/>
                    </mxGeometry>
                </mxCell>
                <mxCell id="58" value="" style="endArrow=classic;html=1;fontFamily=Helvetica;fontSize=16;fontColor=#FFFFFF;exitX=1;exitY=0.5;exitDx=0;exitDy=0;" parent="1" source="48" edge="1">
                    <mxGeometry width="50" height="50" relative="1" as="geometry">
                        <mxPoint x="680" y="1410" as="sourcePoint"/>
                        <mxPoint x="810" y="1200" as="targetPoint"/>
                    </mxGeometry>
                </mxCell>
                <mxCell id="59" value="" style="endArrow=classic;html=1;fontFamily=Helvetica;fontSize=16;fontColor=#FFFFFF;" parent="1" edge="1">
                    <mxGeometry width="50" height="50" relative="1" as="geometry">
                        <mxPoint x="810" y="1200" as="sourcePoint"/>
                        <mxPoint x="810" y="1510" as="targetPoint"/>
                    </mxGeometry>
                </mxCell>
                <mxCell id="60" value="" style="endArrow=classic;html=1;fontFamily=Helvetica;fontSize=16;fontColor=#FFFFFF;" parent="1" edge="1">
                    <mxGeometry width="50" height="50" relative="1" as="geometry">
                        <mxPoint x="810" y="1510" as="sourcePoint"/>
                        <mxPoint x="520" y="1510" as="targetPoint"/>
                    </mxGeometry>
                </mxCell>
                <mxCell id="61" value="" style="endArrow=classic;html=1;fontFamily=Helvetica;fontSize=16;fontColor=#FFFFFF;" parent="1" target="62" edge="1">
                    <mxGeometry width="50" height="50" relative="1" as="geometry">
                        <mxPoint x="520" y="1510" as="sourcePoint"/>
                        <mxPoint x="520" y="1560" as="targetPoint"/>
                    </mxGeometry>
                </mxCell>
                <mxCell id="62" value="Print (arrayresult)" style="shape=document;whiteSpace=wrap;html=1;boundedLbl=1;fontFamily=Helvetica;fontSize=16;fontColor=#FFFFFF;" parent="1" vertex="1">
                    <mxGeometry x="358.5" y="1550" width="328.5" height="80" as="geometry"/>
                </mxCell>
                <mxCell id="64" value="&lt;font style=&quot;font-size: 16px&quot;&gt;End&lt;/font&gt;" style="ellipse;whiteSpace=wrap;html=1;" vertex="1" parent="1">
                    <mxGeometry x="458.5" y="1660" width="120" height="80" as="geometry"/>
                </mxCell>
                <mxCell id="71" value="Text" style="text;html=1;align=center;verticalAlign=middle;resizable=0;points=[];autosize=1;fontFamily=Helvetica;" vertex="1" parent="64">
                    <mxGeometry x="61.5" y="36" width="40" height="20" as="geometry"/>
                </mxCell>
                <mxCell id="65" value="" style="endArrow=classic;html=1;entryX=0.5;entryY=0;entryDx=0;entryDy=0;" edge="1" parent="1" target="64">
                    <mxGeometry width="50" height="50" relative="1" as="geometry">
                        <mxPoint x="519" y="1620" as="sourcePoint"/>
                        <mxPoint x="600" y="1580" as="targetPoint"/>
                    </mxGeometry>
                </mxCell>
                <mxCell id="66" value="Yes&lt;br&gt;" style="text;html=1;strokeColor=none;fillColor=none;align=center;verticalAlign=middle;whiteSpace=wrap;rounded=0;fontFamily=Helvetica;" vertex="1" parent="1">
                    <mxGeometry x="460" y="630" width="60" height="20" as="geometry"/>
                </mxCell>
                <mxCell id="67" value="Yes&lt;br&gt;" style="text;html=1;strokeColor=none;fillColor=none;align=center;verticalAlign=middle;whiteSpace=wrap;rounded=0;fontFamily=Helvetica;" vertex="1" parent="1">
                    <mxGeometry x="408.5" y="910" width="60" height="20" as="geometry"/>
                </mxCell>
                <mxCell id="68" value="No" style="text;html=1;strokeColor=none;fillColor=none;align=center;verticalAlign=middle;whiteSpace=wrap;rounded=0;fontFamily=Helvetica;" vertex="1" parent="1">
                    <mxGeometry x="588.5" y="830" width="60" height="20" as="geometry"/>
                </mxCell>
                <mxCell id="69" value="Yes&lt;br&gt;" style="text;html=1;strokeColor=none;fillColor=none;align=center;verticalAlign=middle;whiteSpace=wrap;rounded=0;fontFamily=Helvetica;" vertex="1" parent="1">
                    <mxGeometry x="710" y="1410" width="60" height="20" as="geometry"/>
                </mxCell>
            </root>
        </mxGraphModel>
    </diagram>
</mxfile>